<?xml version="1.0"?>
<svg xmlns="http://www.w3.org/2000/svg" xmlns:xlink="http://www.w3.org/1999/xlink" xmlns:svgjs="http://svgjs.com/svgjs" version="1.1" width="512" height="512" x="0" y="0" viewBox="0 0 512 512" style="enable-background:new 0 0 512 512" xml:space="preserve" class=""><g><linearGradient xmlns="http://www.w3.org/2000/svg" id="SVGID_1_" gradientUnits="userSpaceOnUse" x1="256" x2="256" y1="512" y2="0"><stop stop-opacity="1" stop-color="#ffd2d2" offset="0"/><stop stop-opacity="1" stop-color="#90edab" offset="0"/><stop stop-opacity="1" stop-color="#b2fdcb" offset="0"/><stop stop-opacity="1" stop-color="#f5eeb6" offset="0"/><stop stop-opacity="1" stop-color="#f6fff9" offset="0"/><stop stop-opacity="1" stop-color="#c1f7c3" offset="0.011583011583011582"/><stop stop-opacity="1" stop-color="#fffdfd" offset="0.8494208494208494"/></linearGradient><linearGradient xmlns="http://www.w3.org/2000/svg" id="SVGID_2_" gradientUnits="userSpaceOnUse" x1="256" x2="256" y1="105" y2="407"><stop stop-opacity="1" stop-color="#ff0606" offset="0"/><stop stop-opacity="1" stop-color="#1de50e" offset="0"/><stop stop-opacity="1" stop-color="#d5f100" offset="0"/><stop stop-opacity="1" stop-color="#ff0606" offset="0"/><stop stop-opacity="1" stop-color="#56f507" offset="0"/></linearGradient><g xmlns="http://www.w3.org/2000/svg"><circle cx="256" cy="256" fill="url(#SVGID_1_)" r="256" data-original="url(#SVGID_1_)" style=""/><g><g><path d="m344.823 371.471h-177.646c-4.91 0-8.882 3.973-8.882 8.882v17.765c0 4.91 3.973 8.882 8.882 8.882h177.647c4.91 0 8.882-3.973 8.882-8.882v-17.765c0-4.91-3.973-8.882-8.883-8.882zm-88.823-230.942c4.91 0 8.882-3.973 8.882-8.882v-17.765c0-4.91-3.973-8.882-8.882-8.882s-8.882 3.973-8.882 8.882v17.765c0 4.91 3.972 8.882 8.882 8.882zm-69.87 12.222c2.482 4.285 7.932 5.681 12.135 3.253 4.25-2.455 5.708-7.885 3.253-12.135l-8.882-15.388c-2.464-4.25-7.92-5.716-12.135-3.253-4.25 2.455-5.708 7.885-3.253 12.135zm-33.379 33.379-15.388-8.882c-4.259-2.464-9.68-1.006-12.135 3.253-2.455 4.25-.997 9.68 3.253 12.135l15.388 8.882c4.209 2.432 9.657 1.026 12.135-3.253 2.455-4.251.998-9.681-3.253-12.135zm160.984-30.126c4.209 2.432 9.656 1.026 12.135-3.253l8.882-15.388c2.455-4.25.998-9.68-3.253-12.135-4.25-2.463-9.689-.997-12.135 3.253l-8.882 15.388c-2.454 4.25-.997 9.68 3.253 12.135zm73.037 24.496c-2.472-4.259-7.902-5.716-12.135-3.253l-15.388 8.882c-4.25 2.455-5.708 7.885-3.253 12.135 2.482 4.285 7.931 5.68 12.135 3.253l15.388-8.882c4.25-2.455 5.708-7.885 3.253-12.135zm-121.89 102.147v71.059h71.059v-115.471c0-44.082-35.859-79.941-79.941-79.941s-79.941 35.859-79.941 79.941v115.471h71.059v-71.059h-17.765v8.882c0 4.91-3.973 8.882-8.882 8.882s-8.882-3.973-8.882-8.882v-35.529c0-4.91 3.973-8.882 8.882-8.882s8.882 3.973 8.882 8.882v8.882h53.294v-8.882c0-4.91 3.973-8.882 8.882-8.882s8.882 3.973 8.882 8.882v35.529c0 4.91-3.973 8.882-8.882 8.882s-8.882-3.973-8.882-8.882v-8.882z" fill="url(#SVGID_2_)" data-original="url(#SVGID_2_)" style=""/></g></g></g></g></svg>
